<svg xmlns="http://www.w3.org/2000/svg" width="200" height="200"><g fill="none"><path stroke="#6f4a32" d="M100 100h9.74"/><path stroke="#32ad32" d="M109.74 100l5.49-1.47"/><path stroke="#c38232" d="M115.23 98.53l4.4-2.54"/><path stroke="#ab3d32" d="M119.63 95.99l3.06-3.06"/><path stroke="#8f7432" d="M122.69 92.93l3.26-5.65"/><path stroke="#6a9832" d="M125.95 87.28l2.06-7.66"/><path stroke="#985d32" d="M128 79.62v-7.69"/><path stroke="#34b132" d="M128 71.93l-1.41-5.29"/><path stroke="#377e32" d="M126.59 66.64l-2.99-5.17"/><path stroke="#356932" d="M123.6 61.47l-6.92-6.92"/><path stroke="#6e7d32" d="M116.68 54.55l-7.7-4.45"/><path stroke="#8da032" d="M116.68 54.55l-2.21-3.84"/><path stroke="#63bf32" d="M123.6 61.47l-1.9-7.08"/><path stroke="#89ab32" d="M126.59 66.64V59"/><path stroke="#365b32" d="M128 71.93l2.1-7.83"/><path stroke="#ae7332" d="M128 79.62l2.55-4.41"/><path stroke="#c63d32" d="M125.95 87.28l5.35-5.34"/><path stroke="#c63732" d="M131.3 81.94l4.06-7.05"/><path stroke="#449832" d="M135.36 74.9l1.49-5.56"/><path stroke="#b65632" d="M135.36 74.9l4.9-4.91"/><path stroke="#57c132" d="M140.27 69.99l3.01-5.22"/><path stroke="#c15032" d="M140.27 69.99l6.9-3.98"/><path stroke="#947c32" d="M131.3 81.94l5.46-3.16"/><path stroke="#5c3a32" d="M122.69 92.93l8.58-4.95"/><path stroke="#a55c32" d="M119.63 95.99l4.33-1.16"/><path stroke="#9e9e32" d="M123.96 94.83l5.87-3.39"/><path stroke="#7c7932" d="M129.83 91.44l4.5-4.5"/><path stroke="#986e32" d="M134.33 86.94l2.63-4.56"/><path stroke="#3f8432" d="M134.33 86.94l4.63-2.67"/><path stroke="#8f4f32" d="M129.83 91.44l5.26-1.4"/><path stroke="#8eb832" d="M135.09 90.03l5.07-2.93"/><path stroke="#6ac632" d="M135.09 90.03h7.86"/><path stroke="#b73932" d="M142.95 90.03l6.62-1.77"/><path stroke="#656e32" d="M149.57 88.26l4.78-2.76"/><path stroke="#5b8d32" d="M154.35 85.5l4.74-4.75"/><path stroke="#98a532" d="M159.1 80.75l2.43-4.22"/><path stroke="#956332" d="M161.53 76.53l1.63-6.09"/><path stroke="#678532" d="M161.53 76.53l5.24-5.24"/><path stroke="#bd8e32" d="M159.1 80.75l3.58-2.07"/><path stroke="#519d32" d="M154.35 85.5l9.38-2.52"/><path stroke="#54ad32" d="M163.73 82.98l3.55-2.05"/><path stroke="#818432" d="M163.73 82.98h8.4"/><path stroke="#8b9332" d="M149.57 88.26h6.7"/><path stroke="#8b3b32" d="M142.95 90.03l6.51 1.75"/><path stroke="#348d32" d="M123.96 94.83h4.1"/><path stroke="#bf7232" d="M128.06 94.83l7.4-1.98"/><path stroke="#489b32" d="M135.46 92.85l4.09-2.36"/><path stroke="#96a632" d="M135.46 92.85h4.88"/><path stroke="#687732" d="M140.34 92.85l6.77-1.82"/><path stroke="#758932" d="M140.34 92.85l6.28 1.68"/><path stroke="#6b7632" d="M146.62 94.53h8.96"/><path stroke="#b38832" d="M146.62 94.53l4.79 2.76"/><path stroke="#9b3d32" d="M128.06 94.83l7.55 2.02"/><path stroke="#395f32" d="M115.23 98.53h4.21"/><path stroke="#5cb532" d="M119.44 98.53l8.74-2.34"/><path stroke="#597e32" d="M119.44 98.53l4.57 1.22"/><path stroke="#6f8532" d="M109.74 100l6.32 1.7"/><path stroke="#a86532" d="M116.06 101.7h8.29"/><path stroke="#53b132" d="M124.35 101.7l9.5-2.56"/><path stroke="#84b132" d="M133.86 99.14l7.83-4.52"/><path stroke="#6ea632" d="M141.7 94.62l5.06-5.07"/><path stroke="#6f6632" d="M146.76 89.55l4.02-6.96"/><path stroke="#4c5732" d="M150.78 82.59l1.27-4.72"/><path stroke="#3db232" d="M150.78 82.59l6.03-6.03"/><path stroke="#c03c32" d="M156.81 76.56l4.55-7.88"/><path stroke="#a69732" d="M156.81 76.56l3.93-2.27"/><path stroke="#68a632" d="M146.76 89.55l7.15-4.13"/><path stroke="#b27232" d="M141.7 94.62l8.58-2.3"/><path stroke="#ada132" d="M133.86 99.14h7.01"/><path stroke="#863f32" d="M124.35 101.7l8.38 2.24"/><path stroke="#80a532" d="M116.06 101.7l4.55 2.62"/><path stroke="#614532" d="M120.6 104.32l7.33 1.96"/><path stroke="#767b32" d="M127.93 106.28h6.2"/><path stroke="#727c32" d="M127.93 106.28l4.23 2.44"/><path stroke="#525b32" d="M132.16 108.72l7.3 1.96"/><path stroke="#bec632" d="M139.46 110.68h8.64"/><path stroke="#6d9332" d="M148.1 110.68l5.71-1.53"/><path stroke="#aa3432" d="M153.81 109.15l7.11-4.1"/><path stroke="#409632" d="M153.81 109.15h7.26"/><path stroke="#a78532" d="M161.07 109.15l8.8-2.36"/><path stroke="#a79a32" d="M161.07 109.15l4.38 1.17"/><path stroke="#816732" d="M165.45 110.32h4.56"/><path stroke="#7dba32" d="M165.45 110.32l3.52 2.03"/><path stroke="#ba5232" d="M168.97 112.35l8.78 2.35"/><path stroke="#b97d32" d="M168.97 112.35l6.3 6.31"/><path stroke="#8c4e32" d="M148.1 110.68l9.48 2.54"/><path stroke="#946a32" d="M157.58 113.22h6.46"/><path stroke="#c35d32" d="M164.04 113.22l4.8-1.29"/><path stroke="#9d6632" d="M168.84 111.93l8.6-4.96"/><path stroke="#43b332" d="M177.44 106.97l5.7-5.7"/><path stroke="#4b9d32" d="M177.44 106.97l6.09-1.63"/><path stroke="#c5bd32" d="M168.84 111.93h5.45"/><path stroke="#ac9c32" d="M164.04 113.22l7.6 2.03"/><path stroke="#63c432" d="M157.58 113.22l4.45 2.57"/><path stroke="#99b132" d="M139.46 110.68l5.5 3.17"/><path stroke="#594332" d="M144.96 113.85l4.5 1.21"/><path stroke="#aa6732" d="M144.96 113.85l4.93 4.93"/><path stroke="#b89332" d="M132.16 108.72l5.08 5.08"/><path stroke="#b69832" d="M137.24 113.8l4.45 2.57"/><path stroke="#6f6432" d="M141.69 116.37l8.66 2.32"/><path stroke="#6b9f32" d="M150.35 118.7h8.4"/><path stroke="#4f4a32" d="M158.74 118.7l4.72-1.27"/><path stroke="#52ad32" d="M158.74 118.7l5.78 1.54"/><path stroke="#486732" d="M164.52 120.24h7.05"/><path stroke="#708932" d="M164.52 120.24l3.78 2.18"/><path stroke="#998432" d="M168.3 122.42l7.21 1.93"/><path stroke="#c6aa32" d="M168.3 122.42l6.87 6.87"/><path stroke="#a05432" d="M150.35 118.7l7.22 4.17"/><path stroke="#7e9832" d="M157.57 122.87l6.44 1.72"/><path stroke="#974932" d="M164.01 124.6h6.34"/><path stroke="#7d7d32" d="M164.01 124.6l5.18 2.98"/><path stroke="#78a232" d="M157.57 122.87l4.38 4.38"/><path stroke="#a49132" d="M141.69 116.37l3.44 3.44"/><path stroke="#487532" d="M145.13 119.81l5.89 3.4"/><path stroke="#559d32" d="M145.13 119.81l4.8 8.31"/><path stroke="#bf6932" d="M149.93 128.12l3.74 3.75"/><path stroke="#aebf32" d="M149.93 128.12l2.05 7.66"/><path stroke="#7fb932" d="M151.98 135.78l3.76 6.52"/><path stroke="#449532" d="M151.98 135.78v4.93"/><path stroke="#85b532" d="M137.24 113.8l4.34 7.52"/><path stroke="#40bc32" d="M120.6 104.32l6.96 6.95"/><path stroke="#659932" d="M100 100l7.98-4.6"/><path stroke="#c16a32" d="M107.98 95.4l6.87-6.88"/><path stroke="#c19932" d="M114.85 88.52l3.8-6.57"/><path stroke="#5f7a32" d="M114.85 88.52l6.79-3.92"/><path stroke="#393332" d="M121.64 84.6l3.3-3.29"/><path stroke="#be7732" d="M124.93 81.31l3.25-5.62"/><path stroke="#43c332" d="M128.18 75.69l2.58-9.64"/><path stroke="#8a6a32" d="M128.18 75.69l5.78-5.78"/><path stroke="#b77f32" d="M133.96 69.9l3.9-6.76"/><path stroke="#3f3532" d="M137.87 63.14l1.77-6.62"/><path stroke="#7dbc32" d="M137.87 63.14l6.38-6.38"/><path stroke="#a97432" d="M144.25 56.76l4.7-8.16"/><path stroke="#b49f32" d="M144.25 56.76l5.2-3"/><path stroke="#a29532" d="M149.45 53.76l2.86-2.86"/><path stroke="#914632" d="M149.45 53.76l4.67-1.26"/><path stroke="#a94b32" d="M154.12 52.5l8.1-4.67"/><path stroke="#808b32" d="M154.12 52.5h8.1"/><path stroke="#8d4932" d="M133.96 69.9l6.64-3.83"/><path stroke="#a86732" d="M124.93 81.31l3.73-2.15"/><path stroke="#77ad32" d="M121.64 84.6l9.48-2.54"/><path stroke="#8f8232" d="M107.98 95.4l8.37-2.25"/><path stroke="#863d32" d="M116.35 93.15l5.22-3.01"/><path stroke="#954532" d="M121.57 90.14l4.87-4.88"/><path stroke="#4d7132" d="M121.57 90.14l8.65-2.32"/><path stroke="#577332" d="M130.22 87.82l4.26-2.46"/><path stroke="#548e32" d="M134.48 85.36l3.25-3.25"/><path stroke="#c08932" d="M137.73 82.1l3.15-5.44"/><path stroke="#5f4632" d="M140.88 76.66l1.85-6.9"/><path stroke="#41ac32" d="M140.88 76.66l5.05-5.06"/><path stroke="#a43432" d="M137.73 82.1l5.47-3.15"/><path stroke="#686f32" d="M134.48 85.36l6.02-1.61"/><path stroke="#a08532" d="M140.5 83.75l4.39-2.54"/><path stroke="#7ba732" d="M144.89 81.21l5.32-5.31"/><path stroke="#8b4c32" d="M150.2 75.9l4.65-8.05"/><path stroke="#a97632" d="M150.2 75.9l3.94-2.27"/><path stroke="#995332" d="M144.89 81.21l5.39-1.44"/><path stroke="#513632" d="M140.5 83.75h7.87"/><path stroke="#c66432" d="M148.37 83.75l7.34-1.97"/><path stroke="#744332" d="M148.37 83.75l7.67 2.05"/><path stroke="#659132" d="M156.04 85.8H164"/><path stroke="#3a4b32" d="M164.01 85.8l4.23-1.13"/><path stroke="#704a32" d="M164.01 85.8l5.7 1.53"/><path stroke="#88b532" d="M156.04 85.8l8.1 4.68"/><path stroke="#aa4232" d="M164.13 90.48l6.68 1.79"/><path stroke="#6dc232" d="M164.13 90.48l6.67 6.66"/><path stroke="#739932" d="M130.22 87.82h8.04"/><path stroke="#7c3832" d="M138.26 87.82l4.29-1.15"/><path stroke="#b0a932" d="M142.55 86.67l4.64-2.68"/><path stroke="#c24232" d="M147.2 83.99l5.86-5.87"/><path stroke="#be8732" d="M153.06 78.12l4.22-7.31"/><path stroke="#a7a832" d="M153.06 78.12l6.81-3.93"/><path stroke="#855d32" d="M147.2 83.99l6.86-1.84"/><path stroke="#728b32" d="M154.06 82.15l4.91-2.84"/><path stroke="#618332" d="M158.97 79.31l5.71-5.71"/><path stroke="#90a532" d="M164.68 73.6l2.62-4.53"/><path stroke="#7f3f32" d="M164.68 73.6l5.06-2.92"/><path stroke="#83c632" d="M158.97 79.31l6.88-1.84"/><path stroke="#5a6332" d="M154.06 82.15h6.66"/><path stroke="#5fbb32" d="M160.72 82.15l3.87-1.04"/><path stroke="#b6aa32" d="M160.72 82.15l6.88 1.84"/><path stroke="#924c32" d="M167.6 84h9.68"/><path stroke="#707f32" d="M167.6 84l8.59 4.95"/><path stroke="#689932" d="M142.55 86.67h6.94"/><path stroke="#40c132" d="M149.49 86.67l7.38-1.98"/><path stroke="#5abf32" d="M156.87 84.69l7.68-4.44"/><path stroke="#9e6a32" d="M156.87 84.69h8.75"/><path stroke="#a55632" d="M149.49 86.67l5.41 1.45"/><path stroke="#bba232" d="M138.26 87.82l8.57 2.3"/><path stroke="#5a6032" d="M146.83 90.11h8.59"/><path stroke="#929132" d="M146.83 90.11l3.63 2.1"/><path stroke="#888a32" d="M116.35 93.15h7.68"/><path stroke="#3b9632" d="M124.03 93.15l5.39-1.45"/><path stroke="#bb3a32" d="M124.03 93.15l9.63 2.58"/><path stroke="#89c532" d="M133.66 95.73h7.46"/><path stroke="#be9a32" d="M133.66 95.73l5.51 3.18"/><path stroke="#58af32" d="M139.17 98.91l4.4 1.18"/><path stroke="#3baf32" d="M139.17 98.91l6.44 6.44"/><path stroke="#90a132" d="M100 100l2.82-4.88"/><path stroke="#653d32" d="M102.82 95.12l2.13-7.97"/><path stroke="#7a9532" d="M104.95 87.15v-6.23"/><path stroke="#999232" d="M104.95 80.92l-1.38-5.17"/><path stroke="#615632" d="M103.57 75.75l-4.33-7.5"/><path stroke="#433832" d="M99.24 68.24l-4.8-4.8"/><path stroke="#569b32" d="M94.44 63.44l-3.82-2.2"/><path stroke="#a39432" d="M90.62 61.24l-9.33-2.5"/><path stroke="#8cc232" d="M81.29 58.74h-9.66"/><path stroke="#357332" d="M81.29 58.74L77 56.26"/><path stroke="#51a532" d="M90.62 61.24l-4.43-4.43"/><path stroke="#997132" d="M94.44 63.44l-2.07-3.59"/><path stroke="#969e32" d="M92.37 59.85L86.3 53.8"/><path stroke="#aca332" d="M92.37 59.85L90 51.08"/><path stroke="#804e32" d="M90.01 51.08l-4.6-7.97"/><path stroke="#9b5132" d="M90.01 51.08v-9.1"/><path stroke="#5f3432" d="M99.24 68.24l-2.03-7.57"/><path stroke="#67bf32" d="M97.2 60.67l-3.56-6.18"/><path stroke="#90be32" d="M93.64 54.49l-6.25-6.25"/><path stroke="#b6af32" d="M93.64 54.49l-1.37-5.1"/><path stroke="#93a832" d="M92.27 49.4l-2.26-3.93"/><path stroke="#333b32" d="M92.27 49.4v-7.98"/><path stroke="#a35532" d="M97.2 60.67v-4.82"/><path stroke="#b6b532" d="M103.57 75.75v-9.9"/><path stroke="#4a3932" d="M103.57 65.86l-1.4-5.2"/><path stroke="#9e5232" d="M102.18 60.66l-3.96-6.85"/><path stroke="#40af32" d="M102.18 60.66v-5.38"/><path stroke="#c45232" d="M102.18 55.28l-1.46-5.43"/><path stroke="#a66632" d="M102.18 55.28l1.71-6.41"/><path stroke="#916c32" d="M103.9 48.87v-8.68"/><path stroke="#56b232" d="M103.9 40.2l-2.24-8.36"/><path stroke="#7f9532" d="M103.9 40.2l1.96-7.35"/><path stroke="#b57232" d="M103.9 48.87l3.22-5.6"/><path stroke="#3f7f32" d="M103.57 65.86l1.73-6.47"/><path stroke="#5c4f32" d="M105.3 59.4v-4.8"/><path stroke="#7a6f32" d="M105.3 59.4l2.18-3.78"/><path stroke="#499032" d="M107.48 55.62l1.3-4.88"/><path stroke="#9f3232" d="M107.48 55.62l4.8-4.8"/><path stroke="#903f32" d="M112.28 50.82l2.47-4.28"/><path stroke="#893c32" d="M112.28 50.82l6.91-4"/><path stroke="#60b032" d="M104.95 80.92l2.56-9.54"/><path stroke="#519d32" d="M104.95 87.15l3.16-5.46"/><path stroke="#8a5b32" d="M108.1 81.69l2.22-8.28"/><path stroke="#3ac732" d="M110.32 73.41v-6.95"/><path stroke="#887332" d="M110.32 66.46l-1.06-3.97"/><path stroke="#728c32" d="M109.26 62.5l-3.34-5.78"/><path stroke="#82a632" d="M105.92 56.72l-4.08-4.09"/><path stroke="#a55932" d="M105.92 56.72l-1.48-5.55"/><path stroke="#b28f32" d="M109.26 62.5v-6.58"/><path stroke="#4f5532" d="M110.32 66.46l2.49-9.28"/><path stroke="#5bc032" d="M110.32 73.41l4.73-8.2"/><path stroke="#a76d32" d="M108.1 81.69l4.02-4.02"/><path stroke="#8c6a32" d="M112.12 77.67l4.78-8.27"/><path stroke="#915b32" d="M116.9 69.4l2.26-8.43"/><path stroke="#8e8732" d="M119.16 60.97V52.8"/><path stroke="#5f6032" d="M119.16 60.97l2.73-4.73"/><path stroke="#6a6732" d="M121.89 56.24l1.17-4.38"/><path stroke="#837832" d="M121.89 56.24l4.3-4.3"/><path stroke="#765632" d="M126.19 51.94l4.76-8.25"/><path stroke="#beb732" d="M130.95 43.69l2.54-9.47"/><path stroke="#5d4232" d="M130.95 43.69l2.91-2.91"/><path stroke="#4bbf32" d="M126.19 51.94l4.69-2.7"/><path stroke="#457632" d="M116.9 69.4l4.31-4.31"/><path stroke="#9fa532" d="M121.21 65.09l2.53-4.38"/><path stroke="#39a332" d="M121.21 65.09l7.63-4.4"/><path stroke="#705d32" d="M128.84 60.69l4.8-4.8"/><path stroke="#b5c432" d="M128.84 60.69l5.34-1.44"/><path stroke="#a56a32" d="M112.12 77.67l6.4-3.7"/><path stroke="#893632" d="M102.82 95.12l4.6-4.6"/><path stroke="#9cc532" d="M107.41 90.53l3.88-6.72"/><path stroke="#93ac32" d="M111.3 83.8l1.8-6.71"/><path stroke="#339e32" d="M111.3 83.8l4.06-4.07"/><path stroke="#648a32" d="M107.41 90.53l4.2-2.42"/><path stroke="#c69932" d="M111.6 88.1l3.82-3.81"/><path stroke="#434432" d="M115.42 84.29l3.8-6.57"/><path stroke="#9fab32" d="M115.42 84.29l4.32-2.5"/><path stroke="#499632" d="M119.74 81.8l5.29-5.3"/><path stroke="#8e5232" d="M125.03 76.5l4.46-7.72"/><path stroke="#614632" d="M125.03 76.5l6.1-3.52"/><path stroke="#83bd32" d="M119.74 81.8l8.58-2.3"/><path stroke="#86ac32" d="M111.6 88.1l9.06-2.42"/><path stroke="#b27432" d="M100 100v-7.06"/><path stroke="#b4c432" d="M100 92.94l-1.47-5.5"/><path stroke="#c6a232" d="M98.53 87.45l-3.5-6.05"/><path stroke="#574a32" d="M95.04 81.4l-3.48-3.48"/><path stroke="#704332" d="M91.56 77.92l-7.14-4.12"/><path stroke="#909632" d="M84.42 73.8l-8.17-2.2"/><path stroke="#949e32" d="M84.42 73.8l-5.52-5.52"/><path stroke="#bea032" d="M78.9 68.28l-8.6-4.96"/><path stroke="#92ac32" d="M78.9 68.28l-4.7-8.15"/><path stroke="#408832" d="M91.56 77.92L89 73.5"/><path stroke="#46b232" d="M95.04 81.4l-1.87-6.97"/><path stroke="#4bac32" d="M93.17 74.43L90 68.96"/><path stroke="#83a932" d="M90.01 68.96l-2.94-2.94"/><path stroke="#3c5832" d="M87.07 66.02l-6.97-4.03"/><path stroke="#699932" d="M80.1 61.99l-5.52-1.48"/><path stroke="#3c8332" d="M80.1 61.99l-3.93-3.93"/><path stroke="#959632" d="M76.17 58.06l-7.75-4.47"/><path stroke="#ab3532" d="M76.17 58.06l-4.86-8.4"/><path stroke="#5ea832" d="M87.07 66.02l-4.9-8.48"/><path stroke="#585b32" d="M82.18 57.54l-6.31-6.31"/><path stroke="#c27932" d="M82.18 57.54l-2.07-7.71"/><path stroke="#7e4232" d="M80.11 49.83l-3.81-6.6"/><path stroke="#6ca832" d="M76.3 43.23l-4.92-4.92"/><path stroke="#648532" d="M76.3 43.23l-2.26-8.42"/><path stroke="#c09732" d="M80.11 49.83v-8.17"/><path stroke="#bea732" d="M90.01 68.96l-1.21-4.53"/><path stroke="#6e5632" d="M88.8 64.43l-2.18-3.77"/><path stroke="#6d5732" d="M86.62 60.66l-5.28-5.28"/><path stroke="#8e6732" d="M81.34 55.38l-3.85-2.22"/><path stroke="#775b32" d="M77.5 53.16l-6.04-1.62"/><path stroke="#c38e32" d="M71.46 51.54h-4.28"/><path stroke="#bf7832" d="M67.18 51.54l-8.16 2.19"/><path stroke="#693432" d="M59.02 53.73l-4.52 2.6"/><path stroke="#3e3f32" d="M59.02 53.73H53.6"/><path stroke="#85bb32" d="M67.18 51.54l-9.45-2.53"/><path stroke="#9ea132" d="M71.46 51.54l-7.57-4.37"/><path stroke="#b26732" d="M77.5 53.16l-5.7-5.7"/><path stroke="#345432" d="M81.34 55.38l-2.99-5.18"/><path stroke="#76b132" d="M86.62 60.66l-1.95-7.3"/><path stroke="#a88532" d="M84.67 53.36L80.99 47"/><path stroke="#376832" d="M84.67 53.36V49.3"/><path stroke="#52ad32" d="M88.8 64.43v-8.41"/><path stroke="#59ad32" d="M88.8 56.02l-1.13-4.22"/><path stroke="#354e32" d="M88.8 56.02l1.2-4.47"/><path stroke="#3a5c32" d="M90 51.55v-7.18"/><path stroke="#af8632" d="M90 51.55l4.72-8.2"/><path stroke="#6d9b32" d="M94.72 43.36l2.54-9.49"/><path stroke="#8d5532" d="M97.26 33.87v-5.23"/><path stroke="#739932" d="M97.26 33.87l4.68-8.1"/><path stroke="#625632" d="M94.72 43.36l3.82-3.82"/><path stroke="#ba3732" d="M93.17 74.43V68.9"/><path stroke="#934c32" d="M98.53 87.45v-5.16"/><path stroke="#426432" d="M98.53 82.3l-2.43-9.07"/><path stroke="#bec432" d="M96.1 73.23l-4.7-8.15"/><path stroke="#334b32" d="M91.4 65.08l-3.58-3.58"/><path stroke="#483b32" d="M87.82 61.5l-5.68-3.28"/><path stroke="#aea932" d="M82.14 58.22l-9.48-2.54"/><path stroke="#718f32" d="M82.14 58.22l-4.72-4.72"/><path stroke="#ac8532" d="M77.42 53.5l-5.72-3.3"/><path stroke="#679e32" d="M77.42 53.5l-2.5-4.33"/><path stroke="#9e4b32" d="M87.82 61.5l-2.26-3.9"/><path stroke="#c05032" d="M85.56 57.6l-6.26-6.27"/><path stroke="#ac3432" d="M85.56 57.6l-1.54-5.76"/><path stroke="#84ba32" d="M84.02 51.84l-2.83-4.9"/><path stroke="#3bab32" d="M81.19 46.94l-3.3-3.3"/><path stroke="#47a932" d="M81.19 46.94l-2.4-8.95"/><path stroke="#6eb232" d="M84.02 51.84v-6.7"/><path stroke="#a8a232" d="M91.4 65.08L90 59.85"/><path stroke="#749032" d="M96.1 73.23v-7.9"/><path stroke="#aeab32" d="M96.1 65.32L94.94 61"/><path stroke="#b37d32" d="M96.1 65.32l1.78-6.62"/><path stroke="#a29d32" d="M97.88 58.7v-5.47"/><path stroke="#c75c32" d="M97.88 53.23l-1.45-5.4"/><path stroke="#5f5432" d="M96.43 47.83l-2.1-3.65"/><path stroke="#964732" d="M96.43 47.83v-4.01"/><path stroke="#776032" d="M97.88 53.23l1.5-5.64"/><path stroke="#584d32" d="M97.88 58.7l2.93-5.08"/><path stroke="#5d5332" d="M98.53 82.3l1.6-5.98"/><path stroke="#546032" d="M100 92.94l1.79-6.68"/><path stroke="#bf9a32" d="M101.79 86.26v-8.73"/><path stroke="#918a32" d="M101.79 77.53l-1.05-3.9"/><path stroke="#9b5c32" d="M101.79 77.53l2.11-7.89"/><path stroke="#91a632" d="M103.9 69.64v-8.46"/><path stroke="#579c32" d="M103.9 69.64l2.67-4.62"/><path stroke="#b3a432" d="M106.57 65.02l1.67-6.24"/><path stroke="#bf4c32" d="M106.57 65.02l5.31-5.31"/><path stroke="#a97132" d="M101.79 86.26l3.19-5.52"/><path stroke="#a87832" d="M104.98 80.74l1.44-5.38"/><path stroke="#aeb432" d="M106.42 75.36v-7.25"/><path stroke="#b59c32" d="M106.42 68.1l-1.86-6.93"/><path stroke="#afc432" d="M106.42 68.1l1.33-4.95"/><path stroke="#484f32" d="M106.42 75.36l4.25-7.36"/><path stroke="#92ab32" d="M104.98 80.74l6.5-6.5"/><path stroke="#51a032" d="M111.47 74.25l2.84-4.92"/><path stroke="#a36a32" d="M114.31 69.33l2.38-8.89"/><path stroke="#a44a32" d="M114.31 69.33l3-3"/><path stroke="#718d32" d="M117.3 66.34l3.95-6.84"/><path stroke="#89c232" d="M117.3 66.34l7.83-4.52"/><path stroke="#587932" d="M111.47 74.25l8.3-4.8"/><path stroke="#79af32" d="M119.77 69.46l4.54-4.55"/><path stroke="#755932" d="M124.31 64.91l3.24-5.61"/><path stroke="#425132" d="M127.55 59.3l1.72-6.4"/><path stroke="#769a32" d="M129.27 52.9v-7.75"/><path stroke="#67a332" d="M129.27 52.9l2.34-4.06"/><path stroke="#455732" d="M127.55 59.3l5.85-5.85"/><path stroke="#a93832" d="M133.4 53.45l2.44-4.23"/><path stroke="#70c132" d="M133.4 53.45l3.62-2.09"/><path stroke="#907232" d="M137.02 51.36l4.82-4.82"/><path stroke="#673b32" d="M137.02 51.36l9.08-2.43"/><path stroke="#754c32" d="M146.1 48.93l3.51-2.03"/><path stroke="#773a32" d="M149.61 46.9l6.38-6.38"/><path stroke="#af6132" d="M149.61 46.9l6.84-1.83"/><path stroke="#338b32" d="M146.1 48.93h9.3"/><path stroke="#665e32" d="M124.31 64.91l7.63-4.4"/><path stroke="#9a3e32" d="M131.94 60.5l5.13-5.13"/><path stroke="#5f4732" d="M137.07 55.37l3.64-6.3"/><path stroke="#55a432" d="M137.07 55.37l8.38-4.84"/><path stroke="#b55032" d="M145.45 50.53l6.16-6.16"/><path stroke="#7d8632" d="M145.45 50.53l7.42-1.98"/><path stroke="#9b8d32" d="M152.87 48.55l6.16-3.56"/><path stroke="#b0bd32" d="M152.87 48.55h5.82"/><path stroke="#4d3732" d="M158.69 48.55l6.73-1.8"/><path stroke="#9d6132" d="M165.42 46.74l5.74-3.31"/><path stroke="#5c7732" d="M165.42 46.74h6.52"/><path stroke="#6d4e32" d="M158.69 48.55l4.05 1.08"/><path stroke="#5a8832" d="M131.94 60.5l8.94-2.39"/><path stroke="#60c632" d="M119.77 69.46l9.08-2.44"/><path stroke="#8b9032" d="M128.85 67.02l4.61-2.66"/><path stroke="#363e32" d="M133.46 64.36l4.08-4.08"/><path stroke="#534a32" d="M137.54 60.28l3.56-6.16"/><path stroke="#b15c32" d="M141.1 54.12l2.48-9.25"/><path stroke="#b44d32" d="M141.1 54.12l2.92-2.92"/><path stroke="#6e9332" d="M137.54 60.28l4.23-2.44"/><path stroke="#a8af32" d="M141.77 57.84l3.28-3.28"/><path stroke="#7bb732" d="M145.05 54.56l4.96-8.6"/><path stroke="#676732" d="M145.05 54.56l4.18-2.42"/><path stroke="#529832" d="M149.23 52.14l3.12-3.12"/><path stroke="#523232" d="M149.23 52.14l8.24-2.2"/><path stroke="#a57e32" d="M157.47 49.94l4.4-2.54"/><path stroke="#c56732" d="M157.47 49.94h9.45"/><path stroke="#56ac32" d="M141.77 57.84l5.7-1.53"/><path stroke="#ab4132" d="M133.46 64.36l4.02-1.08"/><path stroke="#378632" d="M128.85 67.02h9.2"/><path stroke="#35b032" d="M100 100l-2.36-4.09"/><path stroke="#a05d32" d="M97.64 95.91l-4.1-4.1"/><path stroke="#7a4b32" d="M93.53 91.8l-5.48-3.16"/><path stroke="#af3332" d="M88.05 88.64l-9.09-2.43"/><path stroke="#5e6832" d="M78.96 86.2h-9.11"/><path stroke="#bb3632" d="M69.85 86.2l-6.52 1.75"/><path stroke="#6d6232" d="M63.33 87.95L55.3 92.6"/><path stroke="#5a7732" d="M63.33 87.95h-6.48"/><path stroke="#993732" d="M69.85 86.2l-4.05-1.08"/><path stroke="#924f32" d="M65.8 85.12h-7.3"/><path stroke="#884f32" d="M58.5 85.12l-4.92 1.32"/><path stroke="#8b9832" d="M58.5 85.12l-5.06-1.36"/><path stroke="#9c9932" d="M65.8 85.12l-5.76-3.32"/><path stroke="#63af32" d="M60.04 81.8l-5.7-1.53"/><path stroke="#343b32" d="M54.33 80.27h-5.88"/><path stroke="#7f9932" d="M54.33 80.27l-7.32-4.23"/><path stroke="#a6bf32" d="M60.04 81.8l-4.69-4.7"/><path stroke="#557b32" d="M55.35 77.1l-5.63-3.25"/><path stroke="#c5c732" d="M49.72 73.85l-7.96-2.13"/><path stroke="#86c432" d="M49.72 73.85l-2.88-2.87"/><path stroke="#547d32" d="M46.84 70.98l-7.67-4.43"/><path stroke="#808e32" d="M46.84 70.98l-2.95-5.12"/><path stroke="#795932" d="M55.35 77.1l-3.9-6.74"/><path stroke="#a29932" d="M78.96 86.2l-6.53-3.77"/><path stroke="#717b32" d="M88.05 88.64l-6.7-6.7"/><path stroke="#826832" d="M81.35 81.94l-7.5-4.33"/><path stroke="#a19f32" d="M73.86 77.61l-4.78-1.28"/><path stroke="#b54e32" d="M69.08 76.33h-6.94"/><path stroke="#829432" d="M69.08 76.33l-6.67-3.85"/><path stroke="#b96e32" d="M62.41 72.48l-7.7-2.06"/><path stroke="#76ad32" d="M62.41 72.48l-7.03-7.02"/><path stroke="#c45632" d="M73.86 77.61l-3.8-3.78"/><path stroke="#595f32" d="M81.35 81.94l-4.63-8.03"/><path stroke="#c0a932" d="M93.53 91.8l-3-5.2"/><path stroke="#a2b932" d="M90.53 86.6l-6.47-6.47"/><path stroke="#446332" d="M84.06 80.13l-8-4.62"/><path stroke="#5a5332" d="M76.05 75.51l-4.87-1.3"/><path stroke="#b66a32" d="M71.18 74.2H62.4"/><path stroke="#84bc32" d="M62.4 74.2l-6.35 1.7"/><path stroke="#433432" d="M62.4 74.2l-9.39-2.51"/><path stroke="#80bc32" d="M71.18 74.2l-7.05-4.06"/><path stroke="#36ad32" d="M64.13 70.14l-9.29-2.5"/><path stroke="#644032" d="M64.13 70.14l-4.9-4.9"/><path stroke="#bd6832" d="M59.24 65.24l-7.26-4.19"/><path stroke="#42c632" d="M59.24 65.24l-3.8-6.58"/><path stroke="#ad6432" d="M76.05 75.51l-3.28-3.28"/><path stroke="#a93f32" d="M84.06 80.13l-2.49-4.3"/><path stroke="#6e8332" d="M81.57 75.82l-4.75-4.75"/><path stroke="#3d4632" d="M76.82 71.07l-3.8-2.2"/><path stroke="#9e5d32" d="M76.82 71.07L72.74 64"/><path stroke="#44b432" d="M72.74 64.01l-3.8-3.81"/><path stroke="#53a332" d="M68.93 60.2l-6.55-3.78"/><path stroke="#c77632" d="M62.38 56.42l-5.91-1.59"/><path stroke="#b65232" d="M56.47 54.83H49.8"/><path stroke="#5a4632" d="M56.47 54.83l-3.76-2.16"/><path stroke="#693a32" d="M62.38 56.42l-3.45-3.45"/><path stroke="#a85d32" d="M68.93 60.2l-4.13-7.15"/><path stroke="#af5932" d="M72.74 64.01l-1.32-4.93"/><path stroke="#47ab32" d="M81.57 75.82l-1.29-4.81"/><path stroke="#c58e32" d="M80.28 71l-5-8.65"/><path stroke="#8e5f32" d="M75.29 62.35l-6-6"/><path stroke="#baac32" d="M75.29 62.35l-1.72-6.41"/><path stroke="#7b6432" d="M80.28 71v-6.09"/><path stroke="#396732" d="M80.28 64.91l-2.12-7.93"/><path stroke="#c75a32" d="M78.16 56.98l-4.74-8.2"/><path stroke="#66b732" d="M73.42 48.78l-6.2-6.21"/><path stroke="#a33432" d="M67.21 42.57l-7.62-4.4"/><path stroke="#a89132" d="M59.59 38.17l-6.14-1.65"/><path stroke="#724932" d="M59.59 38.17l-4.71-4.71"/><path stroke="#c45f32" d="M67.21 42.57l-4.38-7.6"/><path stroke="#86be32" d="M73.42 48.78l-1.98-7.4"/><path stroke="#895432" d="M78.16 56.98v-6"/><path stroke="#bea232" d="M78.16 50.99l-1.57-5.86"/><path stroke="#489432" d="M78.16 50.99l2.21-8.28"/><path stroke="#3fc132" d="M80.37 42.71v-6.73"/><path stroke="#bd8832" d="M80.37 42.71l3.43-5.92"/><path stroke="#654332" d="M83.8 36.79l1.58-5.93"/><path stroke="#976632" d="M83.8 36.79l4.78-4.8"/><path stroke="#4a6b32" d="M80.28 64.91l2.08-7.74"/><path stroke="#7b4532" d="M90.53 86.6l-2.46-9.16"/><path stroke="#978232" d="M97.64 95.91l-1.53-5.7"/><path stroke="#6e8e32" d="M96.11 90.22l-4.54-7.88"/><path stroke="#4e7d32" d="M91.57 82.34l-6.77-6.77"/><path stroke="#7d4732" d="M84.8 75.57l-7.5-4.32"/><path stroke="#376d32" d="M77.3 71.25l-5.48-1.47"/><path stroke="#637732" d="M71.82 69.78h-5.05"/><path stroke="#54b332" d="M71.82 69.78l-4.23-2.45"/><path stroke="#b36c32" d="M77.3 71.25l-4.44-4.45"/><path stroke="#a89332" d="M84.8 75.57l-2.48-4.28"/><path stroke="#bb5b32" d="M82.32 71.29l-4.18-4.2"/><path stroke="#b9a132" d="M78.14 67.1l-5.65-3.26"/><path stroke="#af7032" d="M72.5 63.84l-6.18-1.65"/><path stroke="#4f7f32" d="M66.32 62.19h-9.69"/><path stroke="#be3932" d="M66.32 62.19l-3.98-2.3"/><path stroke="#a26b32" d="M62.34 59.89L57.9 58.7"/><path stroke="#7d3532" d="M62.34 59.89l-6.32-6.31"/><path stroke="#76b532" d="M72.5 63.84l-3.53-3.52"/><path stroke="#42b032" d="M78.14 67.1l-3.38-5.84"/><path stroke="#595032" d="M74.76 61.26l-6.57-6.58"/><path stroke="#585f32" d="M68.19 54.68l-4.56-2.63"/><path stroke="#7c8432" d="M68.19 54.68l-4.9-8.47"/><path stroke="#aaac32" d="M74.76 61.26l-2.5-9.33"/><path stroke="#564e32" d="M82.32 71.29L80 62.58"/><path stroke="#789c32" d="M91.57 82.34L90 76.48"/><path stroke="#963532" d="M90 76.48l-4.34-7.51"/><path stroke="#836132" d="M85.66 68.97l-4.5-4.5"/><path stroke="#653632" d="M85.66 68.97l-1.5-5.62"/><path stroke="#4b7332" d="M84.15 63.35l-3.38-5.86"/><path stroke="#904232" d="M84.15 63.35v-5.7"/><path stroke="#c4b832" d="M90 76.48v-6.27"/><path stroke="#c1c432" d="M90 70.21l-2.16-8.03"/><path stroke="#5b6b32" d="M87.84 62.18l-2.3-4"/><path stroke="#c06b32" d="M87.84 62.18v-5.3"/><path stroke="#5c7f32" d="M90 70.21l1.62-6.06"/><path stroke="#7e7832" d="M96.11 90.22v-4.55"/><path stroke="#a88b32" d="M100 100l-4.08-2.36"/><path stroke="#714b32" d="M95.92 97.64l-6.3-1.69"/><path stroke="#734132" d="M89.61 95.95H85.2"/><path stroke="#6cb932" d="M85.2 95.95l-5.7 1.53"/><path stroke="#7fb832" d="M79.5 97.48l-3.6 2.08"/><path stroke="#805d32" d="M79.5 97.48h-5.35"/><path stroke="#a04e32" d="M74.15 97.48l-4.67 1.25"/><path stroke="#923432" d="M69.48 98.73l-6 3.47"/><path stroke="#b43c32" d="M63.48 102.2l-6.8 6.8"/><path stroke="#b75732" d="M63.48 102.2l-3.95 1.06"/><path stroke="#b58632" d="M59.53 103.26l-6.24 3.6"/><path stroke="#463432" d="M59.53 103.26h-6.05"/><path stroke="#c58332" d="M53.48 103.26L47 104.99"/><path stroke="#9fb032" d="M47 105l-6.68 3.85"/><path stroke="#c29532" d="M47 105h-6.48"/><path stroke="#b35832" d="M53.48 103.26l-9.29-2.5"/><path stroke="#8b4232" d="M69.48 98.73h-5.3"/><path stroke="#5e7a32" d="M64.18 98.73l-6.38 1.7"/><path stroke="#89c532" d="M57.8 100.44l-4.16 2.4"/><path stroke="#727f32" d="M57.8 100.44h-8.11"/><path stroke="#3cc232" d="M49.69 100.44l-7.15 1.91"/><path stroke="#5f3732" d="M49.69 100.44l-5.5-1.47"/><path stroke="#8d7732" d="M44.2 98.97H35.1"/><path stroke="#a57132" d="M44.2 98.97l-6.35-3.67"/><path stroke="#3b4932" d="M64.18 98.73l-7.35-1.97"/><path stroke="#837b32" d="M74.15 97.48l-8.67-2.33"/><path stroke="#c13c32" d="M85.2 95.95l-8.46-2.26"/><path stroke="#5b7732" d="M76.74 93.69h-6.7"/><path stroke="#a97932" d="M70.05 93.69l-6.89 1.84"/><path stroke="#be5d32" d="M63.16 95.53l-5.98 3.45"/><path stroke="#457732" d="M57.18 98.98l-5.88 5.89"/><path stroke="#7f3632" d="M57.18 98.98l-7.4 1.99"/><path stroke="#96b132" d="M49.79 100.97l-5.82 3.35"/><path stroke="#c07132" d="M43.97 104.32l-6.33 6.33"/><path stroke="#985b32" d="M43.97 104.32l-6.19 1.66"/><path stroke="#9e9732" d="M37.78 105.98l-6.47 3.74"/><path stroke="#af3c32" d="M37.78 105.98h-8.81"/><path stroke="#497632" d="M49.79 100.97h-5.3"/><path stroke="#3c3532" d="M44.5 100.97l-7 1.87"/><path stroke="#755332" d="M44.5 100.97l-5.19-1.4"/><path stroke="#576a32" d="M39.31 99.58h-4.74"/><path stroke="#3e3732" d="M39.31 99.58l-7.52-4.34"/><path stroke="#966832" d="M63.16 95.53h-8.8"/><path stroke="#b6ab32" d="M54.36 95.53l-6.38 1.71"/><path stroke="#47b432" d="M47.98 97.24l-4.71 2.72"/><path stroke="#9d3732" d="M47.98 97.24h-5.74"/><path stroke="#9c8e32" d="M54.36 95.53l-6.44-1.73"/><path stroke="#91b532" d="M47.92 93.8H41.2"/><path stroke="#87b332" d="M47.92 93.8l-6.17-3.56"/><path stroke="#618432" d="M70.05 93.69l-5.32-1.43"/><path stroke="#bd6432" d="M64.73 92.26h-4.22"/><path stroke="#8ec132" d="M60.5 92.26l-8.45 2.27"/><path stroke="#a83932" d="M60.5 92.26l-6.04-1.62"/><path stroke="#5e9032" d="M54.46 90.64h-4.82"/><path stroke="#483932" d="M49.64 90.64l-6.5 1.74"/><path stroke="#676232" d="M49.64 90.64l-5.1-1.36"/><path stroke="#bc5932" d="M54.46 90.64l-6.78-3.91"/><path stroke="#b06532" d="M47.68 86.73l-7.93-2.13"/><path stroke="#8f9e32" d="M47.68 86.73l-4.97-4.97"/><path stroke="#6fa732" d="M64.73 92.26l-8.18-4.72"/><path stroke="#b79332" d="M56.55 87.54l-5.14-1.38"/><path stroke="#93ae32" d="M56.55 87.54l-4.12-4.12"/><path stroke="#a19f32" d="M76.74 93.69l-7.83-4.52"/><path stroke="#576632" d="M68.91 89.17l-5.17-1.38"/><path stroke="#a26332" d="M63.74 87.79h-8.39"/><path stroke="#bbbc32" d="M55.35 87.79l-6.47 1.73"/><path stroke="#c06532" d="M55.35 87.79l-8.17-2.2"/><path stroke="#bd7e32" d="M63.74 87.79l-3.6-2.08"/><path stroke="#959232" d="M68.91 89.17l-2.84-2.85"/><path stroke="#3d9432" d="M66.07 86.32l-5.63-3.24"/><path stroke="#79b732" d="M60.44 83.08l-5.94-1.6"/><path stroke="#5b6f32" d="M60.44 83.08l-5.02-5.02"/><path stroke="#4d3a32" d="M55.42 78.06l-4.37-2.53"/><path stroke="#bc9f32" d="M55.42 78.06l-4.47-7.74"/><path stroke="#79b932" d="M66.07 86.32l-4.98-8.62"/><path stroke="#b17132" d="M61.09 77.7l-3.25-3.25"/><path stroke="#5a5a32" d="M61.09 77.7l-1.98-7.37"/><path stroke="#a08b32" d="M59.11 70.33l-2.67-4.64"/><path stroke="#4f6732" d="M59.11 70.33v-8.48"/><path stroke="#4b6632" d="M59.11 61.85l-1.56-5.83"/><path stroke="#3b4932" d="M59.11 61.85l1.8-6.72"/><path stroke="#9aba32" d="M60.91 55.13v-5.68"/><path stroke="#858d32" d="M60.91 49.45l-2.01-7.52"/><path stroke="#b08e32" d="M60.91 49.45l1.16-4.3"/><path stroke="#a37532" d="M60.91 55.13l3.87-6.7"/><path stroke="#61a032" d="M64.78 48.43l1.04-3.88"/><path stroke="#ba4432" d="M64.78 48.43l5.37-5.37"/><path stroke="#733932" d="M89.61 95.95l-4.16-2.4"/><path stroke="#a87432" d="M85.45 93.55l-4.04-1.08"/><path stroke="#c5b832" d="M81.4 92.47h-5.57"/><path stroke="#be5832" d="M81.4 92.47L76 89.34"/><path stroke="#88ba32" d="M76 89.34l-5.73-1.53"/><path stroke="#974e32" d="M70.27 87.8H62.4"/><path stroke="#bb3232" d="M70.27 87.8l-8.11-4.67"/><path stroke="#9e4232" d="M76 89.34l-3.76-3.75"/><path stroke="#3a8032" d="M72.24 85.59l-6.82-3.94"/><path stroke="#ba7532" d="M65.42 81.65l-5-1.34"/><path stroke="#464c32" d="M65.42 81.65l-5.17-5.17"/><path stroke="#c07032" d="M72.24 85.59l-4.89-8.47"/><path stroke="#70c032" d="M67.35 77.12l-3.17-3.17"/><path stroke="#5d7132" d="M64.18 73.95l-7.3-4.22"/><path stroke="#88c732" d="M56.88 69.73l-7.3-1.95"/><path stroke="#8e5c32" d="M56.88 69.73l-4.66-4.66"/><path stroke="#98a632" d="M64.18 73.95l-4.4-7.62"/><path stroke="#904d32" d="M67.35 77.12l-1.39-5.2"/><path stroke="#654832" d="M85.45 93.55l-4.17-4.17"/><path stroke="#9f9d32" d="M81.28 89.38l-6.68-3.86"/><path stroke="#519832" d="M74.6 85.52l-9.36-2.5"/><path stroke="#689832" d="M65.24 83.01H59.6"/><path stroke="#6a8632" d="M65.24 83.01L58.28 79"/><path stroke="#80a232" d="M74.6 85.52l-6.47-6.47"/><path stroke="#7b9932" d="M68.13 79.05l-5.64-3.26"/><path stroke="#988732" d="M68.13 79.05l-3.08-5.34"/><path stroke="#b88732" d="M65.05 73.71l-4.8-4.8"/><path stroke="#543532" d="M65.05 73.71l-2.4-8.97"/><path stroke="#7cc732" d="M81.28 89.38l-4.16-7.2"/><path stroke="#398832" d="M77.12 82.17l-4.6-4.6"/><path stroke="#355632" d="M77.12 82.17l-2.42-9.01"/><path stroke="#869232" d="M74.7 73.16l-4.3-7.45"/><path stroke="#40ba32" d="M70.4 65.71l-4.9-4.9"/><path stroke="#628a32" d="M70.4 65.71l-1.07-4"/><path stroke="#344432" d="M74.7 73.16V64"/><path stroke="#967032" d="M74.7 64.01l-2.06-7.7"/><path stroke="#5da032" d="M74.7 64.01l1.2-4.5"/><path stroke="#33a132" d="M75.9 59.5v-4.67"/><path stroke="#a93f32" d="M75.9 59.5l4.91-8.5"/><path stroke="#799b32" d="M95.92 97.64l-5.7-5.7"/><path stroke="#65b832" d="M100 100h-4.44"/><path stroke="#363532" d="M95.56 100l-7.9 2.12"/><path stroke="#5e5832" d="M87.65 102.12l-4.23 2.44"/><path stroke="#6fa032" d="M83.42 104.56l-4.87 4.87"/><path stroke="#924232" d="M78.55 109.43l-3.61 6.26"/><path stroke="#9eae32" d="M74.94 115.69l-1.93 7.2"/><path stroke="#48bc32" d="M74.94 115.69l-6.1 6.1"/><path stroke="#4aba32" d="M78.55 109.43l-6.64 3.84"/><path stroke="#786632" d="M83.42 104.56l-4.89 1.31"/><path stroke="#c69032" d="M87.65 102.12h-6.48"/><path stroke="#a9a032" d="M95.56 100l-9.04-2.42"/><path stroke="#777032" d="M86.52 97.58h-7.08"/><path stroke="#556732" d="M86.52 97.58l-8.54-4.93"/><path stroke="#515032" d="M77.98 92.65l-6.06-1.62"/><path stroke="#423932" d="M77.98 92.65l-3.25-3.25"/><path stroke="#b86832" d="M74.73 89.4l-7.45-4.3"/><path stroke="#96b632" d="M74.73 89.4l-3.46-6"/><path stroke="#9b9132" d="M100 100l-7.3 4.22"/><path stroke="#4a4e32" d="M92.7 104.22l-4.26 4.25"/><path stroke="#684132" d="M92.7 104.22l-7.28 1.95"/><path stroke="#3c7f32" d="M85.42 106.17l-6.37 3.67"/><path stroke="#8e8232" d="M79.05 109.84l-4.12 4.13"/><path stroke="#7c6232" d="M74.93 113.97l-2.75 4.76"/><path stroke="#4db832" d="M72.18 118.73l-1.83 6.81"/><path stroke="#ad5b32" d="M70.35 125.54v4.93"/><path stroke="#a84932" d="M70.35 130.47l1.23 4.58"/><path stroke="#5b8132" d="M70.35 130.47l-1.3 4.87"/><path stroke="#b14032" d="M70.35 125.54l-3.56 6.17"/><path stroke="#87c532" d="M66.8 131.71l-2.3 8.57"/><path stroke="#b78f32" d="M66.8 131.71l-3.9 3.9"/><path stroke="#6fb932" d="M72.18 118.73l-5.6 5.6"/><path stroke="#9c6232" d="M74.93 113.97l-4.33 2.5"/><path stroke="#5f9632" d="M70.6 116.47l-3.1 3.09"/><path stroke="#96b732" d="M67.5 119.56l-3.15 5.46"/><path stroke="#8daf32" d="M67.5 119.56l-4.62 2.67"/><path stroke="#519132" d="M70.6 116.47L64.83 118"/><path stroke="#c27c32" d="M64.83 118.01l-5.27 3.05"/><path stroke="#584b32" d="M59.56 121.06l-3.2 3.19"/><path stroke="#377732" d="M59.56 121.06l-6.1 1.63"/><path stroke="#39c332" d="M64.83 118.01h-4.45"/><path stroke="#369f32" d="M60.38 118.01l-7.08 1.9"/><path stroke="#9cae32" d="M60.38 118.01l-5.1-1.37"/><path stroke="#694832" d="M79.05 109.84l-5.86 1.57"/><path stroke="#5c6432" d="M73.2 111.41l-5.13 2.96"/><path stroke="#a66b32" d="M73.2 111.41h-9.16"/><path stroke="#5a3732" d="M85.42 106.17h-4.3"/><path stroke="#577932" d="M81.12 106.17l-8.47 2.27"/><path stroke="#875632" d="M72.65 108.44l-3.5 2.02"/><path stroke="#949f32" d="M69.15 110.46l-3.4 3.4"/><path stroke="#763c32" d="M69.15 110.46l-7.76 2.08"/><path stroke="#6a7532" d="M61.4 112.54l-4.08 2.35"/><path stroke="#b6a332" d="M61.4 112.54h-7.17"/><path stroke="#614c32" d="M54.23 112.54l-4.3 1.15"/><path stroke="#a44832" d="M54.23 112.54l-4.62-1.24"/><path stroke="#3b9032" d="M49.61 111.3h-9.32"/><path stroke="#747a32" d="M40.3 111.3l-6.63 1.77"/><path stroke="#c29f32" d="M33.67 113.07l-4.31 2.5"/><path stroke="#a0bf32" d="M33.67 113.07h-7.7"/><path stroke="#35ab32" d="M40.3 111.3l-5.45-1.46"/><path stroke="#afbc32" d="M49.61 111.3l-5.97-3.45"/><path stroke="#b46832" d="M43.64 107.85l-9.17-2.46"/><path stroke="#9c4b32" d="M34.47 105.4h-6.02"/><path stroke="#4a3a32" d="M34.47 105.4l-8.49-4.9"/><path stroke="#9db032" d="M43.64 107.85l-6.63-6.63"/><path stroke="#9d4432" d="M72.65 108.44H67.1"/><path stroke="#976c32" d="M81.12 106.17l-5.6-1.5"/><path stroke="#90a032" d="M100 100l-4.97 8.6"/><path stroke="#355832" d="M95.03 108.6l-1.78 6.65"/><path stroke="#626532" d="M93.25 115.25v6.04"/><path stroke="#376232" d="M93.25 121.29l1.6 5.97"/><path stroke="#3b5c32" d="M94.85 127.26l4.36 7.55"/><path stroke="#449232" d="M99.2 134.8l6 6"/><path stroke="#669a32" d="M105.2 140.8l8.26 4.77"/><path stroke="#acae32" d="M105.2 140.8l2.2 3.82"/><path stroke="#698032" d="M107.4 144.62l3.84 3.83"/><path stroke="#4ca332" d="M111.24 148.45l4.9 2.84"/><path stroke="#638932" d="M111.24 148.45l3.68 6.38"/><path stroke="#684b32" d="M107.4 144.62l1.9 7.09"/><path stroke="#73b832" d="M109.3 151.7l2.49 4.3"/><path stroke="#858a32" d="M111.79 156l7.06 7.06"/><path stroke="#75bc32" d="M118.85 163.06l4.8 2.77"/><path stroke="#809d32" d="M118.85 163.06l2.54 4.4"/><path stroke="#73a532" d="M111.79 156l2.32 8.67"/><path stroke="#779432" d="M109.3 151.7v7.19"/><path stroke="#7fb132" d="M109.3 158.89l1.68 6.23"/><path stroke="#b73c32" d="M109.3 158.89l-1.63 6.12"/><path stroke="#8cbf32" d="M99.2 134.8l1.54 5.72"/><path stroke="#bf5532" d="M100.74 140.52l4.7 8.14"/><path stroke="#93a432" d="M105.44 148.66l3 3"/><path stroke="#7e3f32" d="M105.44 148.66l1.86 6.93"/><path stroke="#616732" d="M107.3 155.59l3.54 6.13"/><path stroke="#6ab332" d="M110.84 161.72l4.7 4.7"/><path stroke="#36a132" d="M110.84 161.72l1.74 6.52"/><path stroke="#bd8032" d="M107.3 155.59v9.7"/><path stroke="#646832" d="M100.74 140.52v4.14"/><path stroke="#6c6332" d="M100.74 144.66l2.25 8.41"/><path stroke="#75bb32" d="M100.74 144.66l-1.97 7.35"/><path stroke="#6a4232" d="M98.77 152.01v4.5"/><path stroke="#c5a932" d="M98.77 152.01l-3.03 5.24"/><path stroke="#647832" d="M94.85 127.26v6.08"/><path stroke="#9aa832" d="M94.85 133.34l1.41 5.27"/><path stroke="#be8032" d="M96.26 138.61l3.87 6.7"/><path stroke="#527f32" d="M100.13 145.3l5.8 5.82"/><path stroke="#975b32" d="M100.13 145.3l2 7.45"/><path stroke="#8b6b32" d="M96.26 138.61v9.22"/><path stroke="#a25632" d="M94.85 133.34l-1.1 4.1"/><path stroke="#4a4e32" d="M93.76 137.44v8.58"/><path stroke="#9f8932" d="M93.76 146.02l1.48 5.55"/><path stroke="#33ba32" d="M93.76 146.02l-1.5 5.56"/><path stroke="#705c32" d="M93.76 137.44l-4.84 8.38"/><path stroke="#9f8f32" d="M88.92 145.82l-2.56 9.54"/><path stroke="#66c232" d="M88.92 145.82l-6 6"/><path stroke="#897432" d="M82.92 151.81l-3.85 6.68"/><path stroke="#795132" d="M82.92 151.81l-6.24 3.6"/><path stroke="#7f5932" d="M93.25 121.29l-1.8 6.7"/><path stroke="#507932" d="M91.46 127.99v9.73"/><path stroke="#71b032" d="M91.46 137.72l1.2 4.47"/><path stroke="#4e9332" d="M92.66 142.2l4.88 8.46"/><path stroke="#bc6532" d="M92.66 142.2v6.28"/><path stroke="#476d32" d="M92.66 148.48l1.89 7.06"/><path stroke="#5ba832" d="M92.66 148.48l-2.17 8.1"/><path stroke="#42af32" d="M91.46 137.72l-2.55 9.5"/><path stroke="#8c7f32" d="M88.91 147.22v6.31"/><path stroke="#a65f32" d="M88.91 147.22l-4.05 7.02"/><path stroke="#c5b032" d="M84.86 154.24l-1.08 4.03"/><path stroke="#997532" d="M84.86 154.24l-4.54 4.54"/><path stroke="#83be32" d="M80.32 158.78l-5 8.66"/><path stroke="#c63832" d="M80.32 158.78l-7.55 4.36"/><path stroke="#5d8832" d="M91.46 127.99l-2.8 4.83"/><path stroke="#a24632" d="M88.67 132.82l-1.97 7.34"/><path stroke="#4d9a32" d="M88.67 132.82l-6.7 6.7"/><path stroke="#b18532" d="M81.96 139.52l-4.62 8.02"/><path stroke="#3a4532" d="M77.34 147.54l-1.1 4.06"/><path stroke="#556732" d="M77.34 147.54l-6.56 6.55"/><path stroke="#78a032" d="M81.96 139.52l-5.86 3.39"/><path stroke="#987132" d="M93.25 115.25l-3.8 6.57"/><path stroke="#8c9632" d="M89.46 121.82l-1.43 5.33"/><path stroke="#834732" d="M88.03 127.15v6.9"/><path stroke="#b9a832" d="M88.03 134.05l1.98 7.41"/><path stroke="#975932" d="M88.03 134.05l-2.34 8.74"/><path stroke="#386d32" d="M85.69 142.8v8.07"/><path stroke="#507d32" d="M85.69 142.8l-2.78 4.8"/><path stroke="#ad5332" d="M88.03 127.15l-3.54 6.13"/><path stroke="#96c332" d="M89.46 121.82l-4.13 4.13"/><path stroke="#7f6232" d="M85.33 125.95l-4.25 7.36"/><path stroke="#c4b832" d="M81.08 133.31l-2.3 8.55"/><path stroke="#c25232" d="M78.79 141.86v6.96"/><path stroke="#a7bf32" d="M78.79 148.82l1.17 4.4"/><path stroke="#364932" d="M78.79 148.82l-1.19 4.43"/><path stroke="#5f8b32" d="M77.6 153.25v8.56"/><path stroke="#8d6132" d="M77.6 153.25l-2.88 4.99"/><path stroke="#4b5732" d="M74.72 158.24l-2.07 7.73"/><path stroke="#974232" d="M72.65 165.97V172"/><path stroke="#8b6132" d="M72.65 165.97l-2.74 4.74"/><path stroke="#749832" d="M74.72 158.24l-6.97 6.97"/><path stroke="#905032" d="M78.79 141.86l-2.88 5"/><path stroke="#693732" d="M75.9 146.85l-2.28 8.55"/><path stroke="#99ab32" d="M75.9 146.85l-7.02 7.03"/><path stroke="#5d3f32" d="M68.88 153.88l-4.78 8.28"/><path stroke="#c3c232" d="M68.88 153.88l-7.75 4.47"/><path stroke="#aa5b32" d="M61.13 158.35l-6.87 6.87"/><path stroke="#8f8c32" d="M54.26 165.22l-2.23 3.86"/><path stroke="#493732" d="M54.26 165.22l-5.8 3.35"/><path stroke="#903432" d="M61.13 158.35l-6.84 1.83"/><path stroke="#64a732" d="M81.08 133.31l-3.12 3.12"/><path stroke="#41a932" d="M77.96 136.43l-2.53 4.38"/><path stroke="#555832" d="M77.96 136.43l-4.6 2.65"/><path stroke="#afb832" d="M85.33 125.95l-8.37 4.83"/><path stroke="#6b4832" d="M95.03 108.6l-3.11 3.12"/><path stroke="#6aa332" d="M91.92 111.72l-2.1 3.62"/><path stroke="#993932" d="M89.82 115.34l-1.86 6.98"/><path stroke="#886a32" d="M87.96 122.32v4.53"/><path stroke="#acac32" d="M87.96 126.85l1.24 4.65"/><path stroke="#925232" d="M87.96 126.85l-1.68 6.24"/><path stroke="#648532" d="M86.28 133.1v9.7"/><path stroke="#3f9732" d="M86.28 133.1l-3.85 6.67"/><path stroke="#68c032" d="M87.96 122.32l-2.14 3.7"/><path stroke="#395d32" d="M89.82 115.34l-6.26 6.27"/><path stroke="#3b6732" d="M83.56 121.61l-2.81 4.86"/><path stroke="#8d8732" d="M83.56 121.61l-6.03 3.48"/><path stroke="#40ad32" d="M77.53 125.09l-6.61 6.61"/><path stroke="#328632" d="M70.92 131.7l-2.32 4.02"/><path stroke="#974532" d="M70.92 131.7l-5.14 2.97"/><path stroke="#845932" d="M65.78 134.67l-5.55 5.55"/><path stroke="#994f32" d="M60.23 140.22l-4.32 7.48"/><path stroke="#589732" d="M60.23 140.22l-5.06 2.92"/><path stroke="#ab5c32" d="M65.78 134.67l-5.83 1.56"/><path stroke="#686132" d="M59.95 136.23l-5 2.89"/><path stroke="#916f32" d="M59.95 136.23H51.6"/><path stroke="#6e6b32" d="M77.53 125.09l-4.8 1.29"/><path stroke="#4fc732" d="M72.73 126.38l-5.88 3.39"/><path stroke="#ab7932" d="M72.73 126.38h-8.51"/><path stroke="#419e32" d="M91.92 111.72l-4.63 2.67"/><path stroke="#3eb232" d="M87.3 114.39l-3.38 3.37"/><path stroke="#a76532" d="M87.3 114.39l-8.54 2.29"/><path stroke="#803432" d="M78.76 116.68l-4.33 2.5"/><path stroke="#8dc732" d="M78.76 116.68h-9.6"/><path stroke="#764e32" d="M69.17 116.68l-9 2.4"/><path stroke="#3fab32" d="M69.17 116.68l-5.77-1.55"/><path stroke="#81bf32" d="M100 100v4.48"/><path stroke="#7d8a32" d="M100 104.48l1.75 6.52"/><path stroke="#5f7932" d="M101.75 111l4.49 7.78"/><path stroke="#493532" d="M106.24 118.78l6.32 6.32"/><path stroke="#3e9232" d="M112.56 125.1l6.82 3.94"/><path stroke="#4c7532" d="M119.38 129.04l5.4 1.45"/><path stroke="#803232" d="M124.79 130.49h8.61"/><path stroke="#4f3832" d="M133.4 130.49l5.69-1.53"/><path stroke="#40a432" d="M133.4 130.49l4.74 1.27"/><path stroke="#4b8a32" d="M138.14 131.76h4.4"/><path stroke="#9d6c32" d="M138.14 131.76l6 3.46"/><path stroke="#639e32" d="M124.79 130.49l7.97 4.6"/><path stroke="#4d3e32" d="M119.38 129.04l4.52 4.51"/><path stroke="#495a32" d="M123.9 133.55l8.18 4.73"/><path stroke="#9cb332" d="M123.9 133.55l4.93 8.55"/><path stroke="#75ae32" d="M112.56 125.1l2.93 5.07"/><path stroke="#4a9b32" d="M115.49 130.17l5.1 5.1"/><path stroke="#c05832" d="M120.58 135.27l4.02 2.32"/><path stroke="#378632" d="M124.6 137.59l8.2 2.2"/><path stroke="#c24532" d="M124.6 137.59l4.03 4.03"/><path stroke="#4e6d32" d="M120.58 135.27l4.51 7.81"/><path stroke="#747032" d="M115.49 130.17l2.23 8.33"/><path stroke="#40a332" d="M106.24 118.78l1.06 3.98"/><path stroke="#b4a532" d="M107.3 122.76l2.83 4.9"/><path stroke="#885b32" d="M110.13 127.66l3.85 3.85"/><path stroke="#5c4232" d="M113.98 131.5l7.75 4.48"/><path stroke="#ae7932" d="M113.98 131.5l3.81 6.6"/><path stroke="#7baa32" d="M110.13 127.66l1.65 6.14"/><path stroke="#863d32" d="M111.78 133.8l3.92 6.8"/><path stroke="#5d9d32" d="M115.7 140.6l5.13 5.13"/><path stroke="#77a332" d="M120.83 145.73l7.11 4.1"/><path stroke="#418132" d="M120.83 145.73l2.07 3.57"/><path stroke="#444e32" d="M115.7 140.6l2.07 7.72"/><path stroke="#608a32" d="M111.78 133.8v6.98"/><path stroke="#c45132" d="M107.3 122.76v5.78"/><path stroke="#597932" d="M107.3 128.54l2.09 7.77"/><path stroke="#adb332" d="M109.39 136.3l4.2 7.29"/><path stroke="#a13432" d="M109.39 136.3v8.84"/><path stroke="#c44232" d="M109.39 145.14l2.2 8.21"/><path stroke="#327632" d="M109.39 145.14l-1.28 4.77"/><path stroke="#4f3a32" d="M108.1 149.9v7.47"/><path stroke="#c33532" d="M108.1 149.9l-2.53 4.4"/><path stroke="#ba7432" d="M107.3 128.54l-2.48 9.27"/><path stroke="#5e4032" d="M104.82 137.81v9.56"/><path stroke="#8d8632" d="M104.82 137.81l-2.14 3.7"/><path stroke="#68bf32" d="M101.75 111v8.34"/><path stroke="#577a32" d="M101.75 119.34l1.86 6.96"/><path stroke="#4d5e32" d="M103.61 126.3l4.8 8.31"/><path stroke="#7f5e32" d="M108.4 134.61l3.7 3.7"/><path stroke="#af7732" d="M112.1 138.3l4.7 2.72"/><path stroke="#914532" d="M112.1 138.3l2.96 5.13"/><path stroke="#6b8332" d="M108.4 134.61l1.45 5.4"/><path stroke="#8c6c32" d="M103.61 126.3v6.95"/><path stroke="#66a132" d="M101.75 119.34l-2.41 9"/><path stroke="#3c8732" d="M100 104.48l-1.14 4.26"/><path stroke="#7ca232" d="M98.86 108.74v8.56"/><path stroke="#9f9332" d="M98.86 117.3l1.86 6.93"/><path stroke="#6d9a32" d="M100.72 124.23l3.53 6.11"/><path stroke="#ae8932" d="M104.25 130.34l3.49 3.5"/><path stroke="#b6b632" d="M104.25 130.34l1.48 5.56"/><path stroke="#8a8b32" d="M100.72 124.23v8.66"/><path stroke="#607932" d="M100.72 132.89l2.34 8.75"/><path stroke="#965d32" d="M100.72 132.89l-1.09 4.04"/><path stroke="#325d32" d="M99.63 136.93v6.77"/><path stroke="#558232" d="M99.63 143.7l2.29 8.53"/><path stroke="#688532" d="M99.63 143.7l-1.45 5.42"/><path stroke="#78a332" d="M99.63 136.93l-3.4 5.9"/><path stroke="#af7332" d="M98.86 117.3l-1.51 5.64"/><path stroke="#ab4d32" d="M97.35 122.94v4.87"/><path stroke="#469732" d="M97.35 122.94l-2.53 4.37"/><path stroke="#b15432" d="M94.82 127.3l-2.4 8.98"/><path stroke="#946632" d="M92.42 136.28v5.36"/><path stroke="#aab532" d="M92.42 136.28l-3.9 6.75"/><path stroke="#a8bb32" d="M88.53 143.03l-2.19 8.15"/><path stroke="#729532" d="M88.53 143.03l-6.12 6.1"/><path stroke="#a7ad32" d="M82.41 149.14l-3.5 6.08"/><path stroke="#8c7f32" d="M78.9 155.22l-2.23 8.33"/><path stroke="#5d7232" d="M78.9 155.22l-4.18 4.18"/><path stroke="#703232" d="M82.41 149.14l-7.11 4.1"/><path stroke="#a27d32" d="M94.82 127.3l-6.53 6.55"/><path stroke="#394632" d="M88.29 133.85l-2.03 3.51"/><path stroke="#416132" d="M86.26 137.36l-1.8 6.74"/><path stroke="#3d3432" d="M86.26 137.36l-5.34 5.34"/><path stroke="#376332" d="M80.92 142.7l-4.21 7.3"/><path stroke="#afa232" d="M80.92 142.7l-7.79 4.5"/><path stroke="#6d4132" d="M88.29 133.85l-4.95 2.85"/><path stroke="#a54932" d="M83.34 136.7l-5.43 5.43"/><path stroke="#4a9c32" d="M83.34 136.7l-4.86 1.3"/><path stroke="#3ea232" d="M98.86 108.74l-4.26 7.38"/><path stroke="#4fac32" d="M100 100l4.87 8.44"/><path stroke="#347732" d="M104.87 108.44l3.48 3.48"/><path stroke="#856932" d="M108.35 111.92l6.59 3.8"/><path stroke="#9d4332" d="M114.94 115.72l8.76 2.35"/><path stroke="#91c232" d="M123.7 118.07h4.26"/><path stroke="#4c4732" d="M127.96 118.07l7.97-2.14"/><path stroke="#33a932" d="M127.96 118.07l5.65 1.51"/><path stroke="#6b7532" d="M133.6 119.58h7.57"/><path stroke="#a07632" d="M141.17 119.58l3.97-1.06"/><path stroke="#327c32" d="M145.14 118.52l4.07-2.35"/><path stroke="#895232" d="M145.14 118.52h6.82"/><path stroke="#8ba632" d="M151.96 118.52l4.22-1.13"/><path stroke="#aeb032" d="M156.18 117.39l5.87-3.4"/><path stroke="#c4ad32" d="M156.18 117.39h7.52"/><path stroke="#8f5832" d="M163.7 117.39l9.61-2.58"/><path stroke="#617532" d="M163.7 117.39l7.52 2.01"/><path stroke="#7d4432" d="M151.96 118.52l7.6 2.03"/><path stroke="#8b6932" d="M141.17 119.58l5.68 1.52"/><path stroke="#7b3732" d="M133.6 119.58l8.62 4.98"/><path stroke="#c16e32" d="M123.7 118.07l6.43 3.7"/><path stroke="#916e32" d="M114.94 115.72l2.93 2.94"/><path stroke="#c19e32" d="M108.35 111.92l3.43 5.94"/><path stroke="#534d32" d="M111.78 117.86l6.85 6.85"/><path stroke="#4b3232" d="M118.63 124.71l4.68 2.7"/><path stroke="#806932" d="M118.63 124.71l4.56 7.9"/><path stroke="#a3ac32" d="M123.19 132.6l6.5 6.51"/><path stroke="#35c332" d="M129.7 139.11l4.75 2.75"/><path stroke="#8b4732" d="M129.7 139.11l4.32 7.49"/><path stroke="#756432" d="M123.19 132.6l1.75 6.55"/><path stroke="#776e32" d="M111.78 117.86l2.12 7.92"/><path stroke="#835b32" d="M113.9 125.78l4.78 8.28"/><path stroke="#9aa332" d="M118.68 134.06l6.1 6.1"/><path stroke="#4aa832" d="M118.68 134.06l1.74 6.47"/><path stroke="#5bad32" d="M120.42 140.53l3.01 5.22"/><path stroke="#aa5932" d="M120.42 140.53v6.84"/><path stroke="#3e8b32" d="M113.9 125.78v4"/><path stroke="#957032" d="M104.87 108.44l1.92 7.15"/><path stroke="#966932" d="M106.79 115.59l3.05 5.28"/><path stroke="#728132" d="M109.84 120.87l5.11 5.11"/><path stroke="#465132" d="M114.95 125.98l7 4.04"/><path stroke="#623532" d="M121.94 130.02l8.24 2.2"/><path stroke="#478f32" d="M121.94 130.02l2.85 2.84"/><path stroke="#a85832" d="M114.95 125.98l4.68 8.11"/><path stroke="#4abf32" d="M109.84 120.87l1.1 4.1"/><path stroke="#afc232" d="M106.79 115.59v4.7"/><path stroke="#ac9832" d="M106.79 120.3l2.2 8.23"/><path stroke="#824232" d="M109 128.53l3.59 6.22"/><path stroke="#956932" d="M109 128.53v4.05"/><path stroke="#8b9732" d="M109 132.58l1.53 5.73"/><path stroke="#495132" d="M110.53 138.3l2.51 4.36"/><path stroke="#697332" d="M110.53 138.3v6.15"/><path stroke="#4c6332" d="M109 132.58l-1.42 5.28"/><path stroke="#513c32" d="M107.58 137.86v9.1"/><path stroke="#6a8832" d="M107.58 146.97l2.1 7.83"/><path stroke="#674c32" d="M107.58 146.97l-2.02 7.55"/><path stroke="#714432" d="M105.56 154.52v4.9"/><path stroke="#b2a532" d="M105.56 154.52l-2.61 4.53"/><path stroke="#4fb632" d="M107.58 137.86l-3.18 5.51"/><path stroke="#65bb32" d="M106.79 120.3l-1.34 5"/><path stroke="#556732" d="M100 100l7.61 4.4"/><path stroke="#624932" d="M107.61 104.4l4.44 1.19"/><path stroke="#9f3a32" d="M112.05 105.59h8.37"/><path stroke="#8fa932" d="M120.42 105.59l4.6-1.24"/><path stroke="#b54732" d="M125.03 104.35l4.44-2.56"/><path stroke="#ab3332" d="M125.03 104.35h7.4"/><path stroke="#69a032" d="M120.42 105.59l9.16 2.45"/><path stroke="#617a32" d="M129.58 108.04h5.95"/><path stroke="#a39532" d="M135.53 108.04l5.55-1.49"/><path stroke="#358632" d="M135.53 108.04l7.38 1.97"/><path stroke="#555932" d="M129.58 108.04l7.24 4.18"/><path stroke="#bd3b32" d="M112.05 105.59l5.96 3.43"/><path stroke="#3c3532" d="M118 109.02l6.6 1.77"/><path stroke="#913932" d="M124.6 110.79h6.48"/><path stroke="#af6932" d="M131.08 110.79l4.1-1.1"/><path stroke="#35b632" d="M135.19 109.69l4.73-2.74"/><path stroke="#85bd32" d="M139.92 106.95l3.27-3.26"/><path stroke="#c6b532" d="M139.92 106.95l6.32-1.69"/><path stroke="#47c632" d="M135.19 109.69h6.6"/><path stroke="#817932" d="M141.79 109.69l7.15-1.92"/><path stroke="#528332" d="M141.79 109.69l5.58 1.5"/><path stroke="#9a4732" d="M147.37 111.18h4.1"/><path stroke="#598432" d="M151.48 111.18l7.36-1.97"/><path stroke="#8d8432" d="M151.48 111.18l9.54 2.56"/><path stroke="#71b632" d="M161.02 113.74h4.3"/><path stroke="#445532" d="M165.33 113.74l6.8-1.82"/><path stroke="#c55e32" d="M172.12 111.92l5.55-3.2"/><path stroke="#7d5332" d="M172.12 111.92h5.78"/><path stroke="#474732" d="M165.33 113.74l8.59 2.3"/><path stroke="#839532" d="M161.02 113.74l4.3 2.48"/><path stroke="#993a32" d="M147.37 111.18l5.24 3.03"/><path stroke="#563332" d="M131.08 110.79l5.01 1.34"/><path stroke="#80ba32" d="M124.6 110.79l4.7 2.72"/><path stroke="#615632" d="M118 109.02l5.08 5.07"/><path stroke="#be4f32" d="M123.08 114.09l6 3.47"/><path stroke="#b44732" d="M129.08 117.56l7.51 2"/><path stroke="#9db332" d="M136.59 119.57H146"/><path stroke="#9b6a32" d="M146 119.57l5.1-1.37"/><path stroke="#719132" d="M146 119.57l9.61 2.57"/><path stroke="#7ba632" d="M136.59 119.57l8.46 4.88"/><path stroke="#598632" d="M145.05 124.45l5.53 1.49"/><path stroke="#7ea032" d="M145.05 124.45l5.14 5.15"/><path stroke="#7ac332" d="M129.08 117.56l6.67 6.67"/><path stroke="#406932" d="M135.75 124.23l4.92 2.84"/><path stroke="#465932" d="M140.67 127.07l5.39 1.44"/><path stroke="#6bc332" d="M140.67 127.07l4.48 4.48"/><path stroke="#646932" d="M135.75 124.23l3.84 6.64"/><path stroke="#a76732" d="M139.59 130.87l5.57 5.57"/><path stroke="#40be32" d="M139.59 130.87l1.72 6.42"/><path stroke="#ab3b32" d="M123.08 114.09l4.99 8.64"/><path stroke="#494732" d="M128.07 122.73l3.65 3.66"/><path stroke="#838632" d="M128.07 122.73l2.37 8.86"/><path stroke="#989132" d="M107.61 104.4l2.92 2.91"/><path stroke="#336a32" d="M110.53 107.31l5.24 3.03"/><path stroke="#ba6332" d="M115.77 110.34l4.33 1.16"/><path stroke="#598132" d="M120.1 111.5h5.35"/><path stroke="#ac6c32" d="M120.1 111.5l6.23 3.59"/><path stroke="#60ab32" d="M126.33 115.09l4.04 1.08"/><path stroke="#745332" d="M130.37 116.17h7.57"/><path stroke="#b29c32" d="M130.37 116.17l5.92 3.42"/><path stroke="#558732" d="M136.3 119.6l6.02 1.6"/><path stroke="#ac6e32" d="M136.3 119.6l5.31 5.31"/><path stroke="#a05332" d="M126.33 115.09l3.62 3.62"/><path stroke="#c1b332" d="M129.95 118.71l8.46 4.89"/><path stroke="#786a32" d="M129.95 118.71l3.23 5.6"/><path stroke="#7f4532" d="M133.18 124.31l6.07 6.07"/><path stroke="#c03b32" d="M133.18 124.31l1.57 5.86"/><path stroke="#6d5732" d="M115.77 110.34l3.05 3.04"/><path stroke="#a35032" d="M110.53 107.31l2.5 4.32"/><path stroke="#a9ab32" d="M113.02 111.63l6.24 6.24"/><path stroke="#65a732" d="M119.26 117.87l3.66 2.12"/><path stroke="#66a232" d="M119.26 117.87l4.15 7.19"/><path stroke="#774032" d="M123.41 125.06l6.8 6.79"/><path stroke="#336232" d="M130.2 131.85l5.3 3.06"/><path stroke="#52be32" d="M135.5 134.9l7.43 2"/><path stroke="#ad4532" d="M135.5 134.9l4.68 4.68"/><path stroke="#779632" d="M130.2 131.85l3.65 6.31"/><path stroke="#785d32" d="M133.85 138.16l3.36 3.36"/><path stroke="#9e5832" d="M137.21 141.52l4.56 2.64"/><path stroke="#326632" d="M137.21 141.52l2.57 4.46"/><path stroke="#4c4232" d="M133.85 138.16l1.63 6.09"/><path stroke="#bb4032" d="M135.48 144.25l3.33 5.76"/><path stroke="#b4b932" d="M135.48 144.25v9.12"/><path stroke="#8fc732" d="M135.48 153.37l1.68 6.28"/><path stroke="#8f3c32" d="M135.48 153.37l-1.61 6.01"/><path stroke="#a09132" d="M133.87 159.38v4.2"/><path stroke="#4a3c32" d="M133.87 159.38l-4.43 7.67"/><path stroke="#953832" d="M123.41 125.06l2.43 9.05"/><path stroke="#565d32" d="M125.84 134.11l3.17 5.49"/><path stroke="#5ca732" d="M129 139.6l4.65 4.64"/><path stroke="#476e32" d="M133.65 144.24l4.09 2.36"/><path stroke="#714a32" d="M137.74 146.6l7.37 1.97"/><path stroke="#758332" d="M137.74 146.6l4.47 4.48"/><path stroke="#524532" d="M133.65 144.24l2.36 4.09"/><path stroke="#c1af32" d="M129 139.6l1.38 5.13"/><path stroke="#959f32" d="M125.84 134.11v9.99"/><path stroke="#ae3e32" d="M125.84 144.1l2.56 9.56"/><path stroke="#867d32" d="M125.84 144.1l-2.21 8.24"/><path stroke="#804732" d="M123.63 152.34v5.02"/><path stroke="#3c4532" d="M123.63 157.36l1.84 6.85"/><path stroke="#8f8832" d="M123.63 157.36l-1.1 4.1"/><path stroke="#c19d32" d="M123.63 152.34l-2.48 4.3"/><path stroke="#a4bd32" d="M121.15 156.64l-1.46 5.43"/><path stroke="#43a632" d="M121.15 156.64l-4.3 4.3"/><path stroke="#596c32" d="M116.84 160.95l-2.98 5.16"/><path stroke="#68bc32" d="M116.84 160.95l-3.48 2"/><path stroke="#7b3c32" d="M113.02 111.63l1.56 5.8"/><path stroke="#489b32" d="M114.58 117.43l3.13 5.43"/><path stroke="#a4c432" d="M114.58 117.43v7.38"/><path stroke="#6ca432" d="M114.58 124.8l2.1 7.85"/><path stroke="#623732" d="M116.68 132.65l2.36 4.1"/><path stroke="#9a8832" d="M119.04 136.74l3.23 3.23"/><path stroke="#405832" d="M122.27 139.97l7.74 4.47"/><path stroke="#a63e32" d="M130.01 144.44l9.4 2.52"/><path stroke="#329c32" d="M130.01 144.44l3.33 3.32"/><path stroke="#ab7032" d="M133.34 147.76l4.21 2.44"/><path stroke="#4d4e32" d="M133.34 147.76l3.09 5.36"/><path stroke="#91a332" d="M122.27 139.97l4.25 7.37"/><path stroke="#99b532" d="M119.04 136.74l1.43 5.35"/><path stroke="#614632" d="M116.68 132.65v8.5"/><path stroke="#4e9032" d="M116.68 141.14l1.4 5.2"/><path stroke="#7fbf32" d="M116.68 141.14l-1.9 7.06"/><path stroke="#784a32" d="M114.58 124.8l-1.7 6.36"/><path stroke="#5db132" d="M112.87 131.16v6.18"/><path stroke="#855d32" d="M112.87 137.34l2.08 7.77"/><path stroke="#a2a032" d="M112.87 137.34l-1.46 5.45"/><path stroke="#688232" d="M112.87 131.16l-2.88 5"/><path stroke="#bba232" d="M109.99 136.16l-2.5 9.32"/><path stroke="#8ba032" d="M107.5 145.48V153"/><path stroke="#345732" d="M107.5 145.48l-2.68 4.63"/><path stroke="#33ba32" d="M109.99 136.16l-5.64 5.64"/></g></svg>